<svg xmlns="http://www.w3.org/2000/svg" width="51" height="51.001" viewBox="0 0 51 51.001">
  <path id="Differenzmenge_4" data-name="Differenzmenge 4" d="M33.956,50a.977.977,0,0,1-.656-.253l-2.572-2.329-2.572,2.329a.975.975,0,0,1-1.31,0l-2.573-2.329L21.7,49.748a.976.976,0,0,1-1.311,0l-2.572-2.329-2.572,2.329a.975.975,0,0,1-1.31,0l-2.573-2.329L8.79,49.748a.976.976,0,0,1-1.311,0l-3.235-2.93a.978.978,0,0,1-.321-.724V42.835H.977A.978.978,0,0,1,0,41.858V37.951a.978.978,0,0,1,.977-.977H3.922V14.026H.977A.978.978,0,0,1,0,13.049V9.143a.978.978,0,0,1,.977-.977H3.922V3.906a.977.977,0,0,1,.321-.724L7.479.253a.976.976,0,0,1,1.311,0l2.571,2.329L13.935.253a.975.975,0,0,1,1.31,0l2.572,2.329L20.389.253a.976.976,0,0,1,1.311,0l2.571,2.329L26.845.253a.975.975,0,0,1,1.31,0l2.572,2.329L33.3.253a.976.976,0,0,1,1.311,0l3.235,2.93a.979.979,0,0,1,.321.724V8.167h2.05V7.2a.978.978,0,0,1,.977-.977H45.1a.978.978,0,0,1,.977.977v.969h2.947A.978.978,0,0,1,50,9.143v3.906a.978.978,0,0,1-.977.976H46.076v.969a.978.978,0,0,1-.977.976H41.194a.978.978,0,0,1-.977-.976v-.969h-2.05V36.975h2.05v-.969a.978.978,0,0,1,.977-.977H45.1a.978.978,0,0,1,.977.977v.969h2.947a.978.978,0,0,1,.977.977v3.907a.978.978,0,0,1-.977.977H46.076V43.8a.978.978,0,0,1-.977.977H41.194a.978.978,0,0,1-.977-.977v-.969h-2.05v3.259a.98.98,0,0,1-.321.724l-3.235,2.93A.976.976,0,0,1,33.956,50Zm0-47.706L31.711,4.325V45.674l2.244,2.032,2.259-2.046V4.34Zm-6.455,0L25.256,4.325V45.674L27.5,47.706l2.244-2.031V4.325Zm-6.455,0L18.8,4.325v41.35l2.244,2.031,2.243-2.031V4.325Zm-6.455,0L12.345,4.325v41.35l2.245,2.031,2.243-2.031V4.325Zm-6.456,0L5.875,4.34V45.661l2.259,2.046,2.243-2.031V4.325ZM42.169,36.982v5.845h1.954V36.982ZM1.953,38.929v1.953H3.9a5.493,5.493,0,0,0,.022.668V38.929Zm44.123,0v1.953h1.97V38.929Zm-7.909,0v1.953h2.05V38.929Zm4-30.755v5.845h1.954V8.174Zm3.907,1.946v1.953h1.97V10.12Zm-7.909,0v1.953h2.05V10.12Zm-36.214,0v1.953H3.922V10.12Z" transform="translate(0.5 0.5)" fill="#b60d1c" stroke="rgba(0,0,0,0)" stroke-miterlimit="10" stroke-width="1"/>
</svg>
