<svg xmlns="http://www.w3.org/2000/svg" width="51.07" height="51" viewBox="0 0 51.07 51">
  <g id="Gruppe_3" data-name="Gruppe 3" transform="translate(-1539.43 -970.5)">
    <path id="Differenzmenge_5" data-name="Differenzmenge 5" d="M8194.436,3599.125a2.107,2.107,0,0,1-1.8-1.011c-.311-.515-.628-1.055-.943-1.6a14.091,14.091,0,0,1-3.254,0c-.376.648-.677,1.158-.946,1.6a2.107,2.107,0,0,1-1.8,1.011,2.057,2.057,0,0,1-.793-.158l-2.776-1.149a2.108,2.108,0,0,1-1.233-2.441c.159-.635.316-1.242.467-1.8a13.981,13.981,0,0,1-2.3-2.3c-.578.156-1.185.313-1.8.468a2.065,2.065,0,0,1-.5.061,2.122,2.122,0,0,1-1.944-1.294l-1.149-2.776a2.105,2.105,0,0,1,.853-2.6c.541-.324,1.081-.642,1.6-.945a14.1,14.1,0,0,1,0-3.252c-.593-.344-1.118-.653-1.6-.945a2.106,2.106,0,0,1-.853-2.6l1.149-2.777a2.122,2.122,0,0,1,1.945-1.294,2.061,2.061,0,0,1,.5.061c.617.155,1.223.312,1.8.468a14.009,14.009,0,0,1,2.3-2.3c-.208-.784-.348-1.323-.467-1.8a2.108,2.108,0,0,1,1.233-2.441l2.776-1.149a2.061,2.061,0,0,1,.8-.158,2.107,2.107,0,0,1,1.8,1.011c.294.489.6,1.013.946,1.6a13.849,13.849,0,0,1,1.62-.095,14.184,14.184,0,0,1,1.632.095c.364-.628.665-1.138.945-1.6a2.106,2.106,0,0,1,1.8-1.011,2.069,2.069,0,0,1,.8.158l2.776,1.149a2.109,2.109,0,0,1,1.233,2.441c-.17.677-.323,1.267-.468,1.8a13.868,13.868,0,0,1,2.3,2.3c.582-.157,1.188-.314,1.8-.468a2.059,2.059,0,0,1,.5-.061,2.122,2.122,0,0,1,1.944,1.294l1.151,2.777a2.111,2.111,0,0,1-.854,2.6c-.5.3-1.026.611-1.6.945a14.149,14.149,0,0,1,0,3.252c.519.3,1.043.609,1.6.945a2.111,2.111,0,0,1,.854,2.6l-1.149,2.776a2.127,2.127,0,0,1-1.947,1.294,2.057,2.057,0,0,1-.5-.061c-.622-.155-1.229-.312-1.8-.468a13.934,13.934,0,0,1-2.3,2.3c.173.638.334,1.269.468,1.8a2.109,2.109,0,0,1-1.233,2.441l-2.774,1.149A2.074,2.074,0,0,1,8194.436,3599.125Zm-15.33-10.11a2.08,2.08,0,0,1,1.65.806,11.723,11.723,0,0,0,2.047,2.047,2.088,2.088,0,0,1,.733,2.2c-.148.547-.3,1.129-.449,1.73l2.55,1.057c.307-.511.616-1.041.906-1.541a2.085,2.085,0,0,1,2.072-1.036,11.714,11.714,0,0,0,2.9,0,2.161,2.161,0,0,1,.258-.016,2.1,2.1,0,0,1,1.814,1.052c.269.469.564.973.9,1.541l2.552-1.057c-.146-.581-.3-1.163-.448-1.728a2.087,2.087,0,0,1,.73-2.2,11.817,11.817,0,0,0,2.048-2.05,2.074,2.074,0,0,1,1.649-.806,2.121,2.121,0,0,1,.55.073c.551.149,1.132.3,1.729.449l1.057-2.55c-.514-.308-1.031-.612-1.541-.9a2.1,2.1,0,0,1-1.036-2.074,11.682,11.682,0,0,0,0-2.9,2.094,2.094,0,0,1,1.036-2.072c.444-.255.934-.542,1.541-.9l-1.057-2.552c-.578.146-1.159.3-1.729.449a2.123,2.123,0,0,1-.551.073,2.069,2.069,0,0,1-1.646-.8,11.686,11.686,0,0,0-2.05-2.047,2.1,2.1,0,0,1-.732-2.2c.148-.545.3-1.126.448-1.728l-2.55-1.057c-.329.548-.625,1.052-.9,1.541a2.088,2.088,0,0,1-2.074,1.036,11.745,11.745,0,0,0-2.9,0,2.083,2.083,0,0,1-2.072-1.038c-.275-.479-.571-.982-.9-1.539l-2.55,1.057c.144.577.294,1.159.449,1.728a2.088,2.088,0,0,1-.733,2.2,11.742,11.742,0,0,0-2.047,2.049,2.074,2.074,0,0,1-1.649.806,2.125,2.125,0,0,1-.551-.073c-.522-.141-1.087-.289-1.728-.451l-1.057,2.552c.423.254.884.525,1.541.9a2.088,2.088,0,0,1,1.036,2.074,11.729,11.729,0,0,0,0,2.9,2.088,2.088,0,0,1-1.036,2.072c-.552.318-1.071.622-1.541.9l1.057,2.55c.624-.156,1.189-.3,1.728-.449A2.118,2.118,0,0,1,8179.106,3589.016Z" transform="translate(-6633.5 -2578.125)" fill="#edc500" stroke="rgba(0,0,0,0)" stroke-miterlimit="10" stroke-width="1"/>
    <path id="Differenzmenge_6" data-name="Differenzmenge 6" d="M8181.127,3581.258a7.635,7.635,0,1,1,2.919-.584A7.573,7.573,0,0,1,8181.127,3581.258Zm-.006-13.021a5.391,5.391,0,1,0,2.07,10.369,5.39,5.39,0,0,0-2.07-10.369Z" transform="translate(-6624.564 -2569.19)" fill="#edc500" stroke="rgba(0,0,0,0)" stroke-miterlimit="10" stroke-width="1"/>
    <path id="Differenzmenge_8" data-name="Differenzmenge 8" d="M8187.294,3591.406h-2.183a1.781,1.781,0,0,1-1.753-1.508c-.069-.464-.123-.84-.169-1.183a10.47,10.47,0,0,1-1.934-.8c-.312.239-.633.481-.955.718a1.782,1.782,0,0,1-2.307-.173l-1.545-1.543a1.785,1.785,0,0,1-.173-2.309c.2-.269.427-.573.718-.955a10.478,10.478,0,0,1-.8-1.934c-.433-.058-.831-.114-1.183-.167a1.785,1.785,0,0,1-1.508-1.755v-2.183a1.781,1.781,0,0,1,1.508-1.753c.469-.07.845-.124,1.183-.169a10.462,10.462,0,0,1,.8-1.934c-.278-.364-.513-.676-.718-.955a1.786,1.786,0,0,1,.173-2.309l1.545-1.543a1.782,1.782,0,0,1,2.307-.173c.331.244.651.486.955.718a10.453,10.453,0,0,1,1.934-.8l.011-.078c.051-.365.1-.742.158-1.106a1.78,1.78,0,0,1,1.753-1.508h2.183a1.785,1.785,0,0,1,1.755,1.508c.057.381.113.78.167,1.183a10.466,10.466,0,0,1,1.935.8c.308-.234.636-.483.957-.718a1.739,1.739,0,0,1,1.047-.344,1.77,1.77,0,0,1,1.26.517l1.543,1.543a1.786,1.786,0,0,1,.175,2.309c-.234.314-.471.627-.721.955a10.239,10.239,0,0,1,.8,1.934c.378.051.754.1,1.184.169a1.78,1.78,0,0,1,1.508,1.753v2.183a1.785,1.785,0,0,1-1.508,1.755c-.365.054-.764.111-1.184.167a10.256,10.256,0,0,1-.8,1.934c.225.294.486.639.721.955a1.786,1.786,0,0,1-.175,2.309l-1.543,1.543a1.77,1.77,0,0,1-1.26.517,1.747,1.747,0,0,1-1.05-.344c-.337-.249-.649-.484-.954-.718a10.463,10.463,0,0,1-1.935.8c-.055.413-.111.811-.167,1.183A1.785,1.785,0,0,1,8187.294,3591.406Zm-6.072-5.688a1.783,1.783,0,0,1,.875.231,8.3,8.3,0,0,0,1.887.782,1.77,1.77,0,0,1,1.284,1.481c.049.374.1.733.148,1.068h1.574c.046-.315.1-.675.148-1.068a1.769,1.769,0,0,1,1.284-1.481,8.276,8.276,0,0,0,1.887-.782,1.772,1.772,0,0,1,1.957.138c.277.213.559.427.86.652l1.112-1.115c-.207-.275-.429-.568-.651-.858a1.773,1.773,0,0,1-.139-1.957,8.2,8.2,0,0,0,.782-1.887,1.769,1.769,0,0,1,1.481-1.284c.362-.048.722-.1,1.068-.148v-1.574c-.328-.048-.687-.1-1.068-.148a1.768,1.768,0,0,1-1.481-1.284,8.3,8.3,0,0,0-.782-1.887,1.774,1.774,0,0,1,.139-1.957c.262-.34.469-.612.651-.858l-1.112-1.115c-.294.22-.584.439-.86.652a1.79,1.79,0,0,1-1.083.37,1.768,1.768,0,0,1-.874-.232,8.277,8.277,0,0,0-1.887-.782,1.768,1.768,0,0,1-1.284-1.481c-.052-.388-.1-.738-.148-1.068h-1.574c-.051.348-.1.708-.148,1.068a1.769,1.769,0,0,1-1.284,1.481,8.311,8.311,0,0,0-1.887.782,1.768,1.768,0,0,1-.874.232,1.788,1.788,0,0,1-1.083-.37c-.3-.231-.6-.459-.858-.652l-1.115,1.115c.244.324.451.6.652.858a1.77,1.77,0,0,1,.138,1.957,8.25,8.25,0,0,0-.782,1.887,1.768,1.768,0,0,1-1.482,1.284c-.4.052-.744.1-1.068.148v1.574c.313.046.652.093,1.068.148a1.768,1.768,0,0,1,1.482,1.284,8.25,8.25,0,0,0,.782,1.887,1.769,1.769,0,0,1-.138,1.957c-.206.267-.413.54-.652.858l1.115,1.115c.365-.275.614-.464.858-.652A1.785,1.785,0,0,1,8181.222,3585.718Z" transform="translate(-6608.905 -2595)" fill="#edc500" stroke="rgba(0,0,0,0)" stroke-miterlimit="10" stroke-width="1"/>
    <path id="Differenzmenge_7" data-name="Differenzmenge 7" d="M8178.031,3575.063a4.532,4.532,0,1,1,4.532-4.532A4.536,4.536,0,0,1,8178.031,3575.063Zm0-7.05a2.518,2.518,0,1,0,2.518,2.518A2.519,2.519,0,0,0,8178.031,3568.013Z" transform="translate(-6600.734 -2586.829)" fill="#edc500" stroke="rgba(0,0,0,0)" stroke-miterlimit="10" stroke-width="1"/>
  </g>
</svg>
